<mxfile host="app.diagrams.net" modified="2023-04-12T08:18:39.198Z" agent="Mozilla/5.0 (X11; Ubuntu; Linux x86_64; rv:109.0) Gecko/20100101 Firefox/111.0" etag="J_ldvvanNP_anIrHYq-A" version="21.1.6" type="device">
  <diagram name="Page-1" id="7NqsEdOKnt6puUPz8ZZ4">
    <mxGraphModel dx="3184" dy="795" grid="1" gridSize="10" guides="1" tooltips="1" connect="1" arrows="1" fold="1" page="1" pageScale="1" pageWidth="900" pageHeight="1600" math="0" shadow="0">
      <root>
        <mxCell id="0" />
        <mxCell id="1" parent="0" />
        <mxCell id="Y6tP95EpHtXouHt9-1tt-1" value="orcharhino Server" style="rounded=1;whiteSpace=wrap;html=1;strokeWidth=2;strokeColor=#8dc63f;fontSize=24;fontStyle=1;fontColor=#000000;" vertex="1" parent="1">
          <mxGeometry x="-615" y="40" width="230" height="40" as="geometry" />
        </mxCell>
        <mxCell id="Y6tP95EpHtXouHt9-1tt-3" value="orcharhino Proxy 3" style="rounded=1;whiteSpace=wrap;html=1;strokeWidth=2;strokeColor=#8dc63f;fontSize=24;fontStyle=1;fontColor=#000000;" vertex="1" parent="1">
          <mxGeometry x="-340" y="160" width="240" height="40" as="geometry" />
        </mxCell>
        <mxCell id="Y6tP95EpHtXouHt9-1tt-4" value="orcharhino Proxy 2" style="rounded=1;whiteSpace=wrap;html=1;strokeWidth=2;strokeColor=#8dc63f;fontSize=24;fontStyle=1;fontColor=#000000;" vertex="1" parent="1">
          <mxGeometry x="-620" y="160" width="240" height="40" as="geometry" />
        </mxCell>
        <mxCell id="Y6tP95EpHtXouHt9-1tt-5" value="orcharhino Proxy 1" style="rounded=1;whiteSpace=wrap;html=1;strokeWidth=2;strokeColor=#8dc63f;fontSize=24;fontStyle=1;fontColor=#000000;" vertex="1" parent="1">
          <mxGeometry x="-900" y="160" width="240" height="40" as="geometry" />
        </mxCell>
        <mxCell id="Y6tP95EpHtXouHt9-1tt-6" value="" style="endArrow=none;html=1;rounded=0;strokeWidth=2;strokeColor=#8dc63f;fontColor=#000000;" edge="1" parent="1" source="Y6tP95EpHtXouHt9-1tt-1" target="Y6tP95EpHtXouHt9-1tt-5">
          <mxGeometry width="50" height="50" relative="1" as="geometry">
            <mxPoint x="-440" y="360" as="sourcePoint" />
            <mxPoint x="-390" y="310" as="targetPoint" />
            <Array as="points">
              <mxPoint x="-780" y="60" />
            </Array>
          </mxGeometry>
        </mxCell>
        <mxCell id="Y6tP95EpHtXouHt9-1tt-7" value="" style="endArrow=none;html=1;rounded=0;strokeWidth=2;strokeColor=#8dc63f;fontColor=#000000;" edge="1" parent="1" source="Y6tP95EpHtXouHt9-1tt-1" target="Y6tP95EpHtXouHt9-1tt-4">
          <mxGeometry width="50" height="50" relative="1" as="geometry">
            <mxPoint x="-430" y="370" as="sourcePoint" />
            <mxPoint x="-380" y="320" as="targetPoint" />
          </mxGeometry>
        </mxCell>
        <mxCell id="Y6tP95EpHtXouHt9-1tt-8" value="" style="endArrow=none;html=1;rounded=0;strokeWidth=2;strokeColor=#8dc63f;fontColor=#000000;" edge="1" parent="1" source="Y6tP95EpHtXouHt9-1tt-1" target="Y6tP95EpHtXouHt9-1tt-3">
          <mxGeometry width="50" height="50" relative="1" as="geometry">
            <mxPoint x="-420" y="380" as="sourcePoint" />
            <mxPoint x="-370" y="330" as="targetPoint" />
            <Array as="points">
              <mxPoint x="-220" y="60" />
            </Array>
          </mxGeometry>
        </mxCell>
        <mxCell id="Y6tP95EpHtXouHt9-1tt-9" value="TCP Load Balancer" style="rounded=1;whiteSpace=wrap;html=1;strokeWidth=2;strokeColor=#8dc63f;fontSize=24;fontStyle=1;fontColor=#000000;" vertex="1" parent="1">
          <mxGeometry x="-620" y="280" width="240" height="40" as="geometry" />
        </mxCell>
        <mxCell id="Y6tP95EpHtXouHt9-1tt-10" value="Managed Hosts" style="rounded=1;whiteSpace=wrap;html=1;strokeWidth=2;strokeColor=#8dc63f;fontSize=24;fontStyle=1;fontColor=#000000;" vertex="1" parent="1">
          <mxGeometry x="-600" y="400" width="200" height="40" as="geometry" />
        </mxCell>
        <mxCell id="Y6tP95EpHtXouHt9-1tt-12" value="" style="endArrow=classic;html=1;rounded=0;strokeWidth=2;strokeColor=#8dc63f;fontColor=#000000;" edge="1" parent="1" source="Y6tP95EpHtXouHt9-1tt-9" target="Y6tP95EpHtXouHt9-1tt-4">
          <mxGeometry width="50" height="50" relative="1" as="geometry">
            <mxPoint x="-440" y="360" as="sourcePoint" />
            <mxPoint x="-390" y="310" as="targetPoint" />
          </mxGeometry>
        </mxCell>
        <mxCell id="Y6tP95EpHtXouHt9-1tt-13" value="" style="endArrow=classic;html=1;rounded=0;strokeWidth=2;strokeColor=#439bd6;fontColor=#000000;" edge="1" parent="1" source="Y6tP95EpHtXouHt9-1tt-9" target="Y6tP95EpHtXouHt9-1tt-5">
          <mxGeometry width="50" height="50" relative="1" as="geometry">
            <mxPoint x="-560" y="250" as="sourcePoint" />
            <mxPoint x="-380" y="320" as="targetPoint" />
            <Array as="points">
              <mxPoint x="-780" y="300" />
            </Array>
          </mxGeometry>
        </mxCell>
        <mxCell id="Y6tP95EpHtXouHt9-1tt-18" value="8140" style="endArrow=classic;html=1;rounded=0;strokeWidth=2;strokeColor=#8dc63f;fontSize=16;fontColor=#000000;fontStyle=1" edge="1" parent="1">
          <mxGeometry width="50" height="50" relative="1" as="geometry">
            <mxPoint x="-586" y="400" as="sourcePoint" />
            <mxPoint x="-586" y="320" as="targetPoint" />
          </mxGeometry>
        </mxCell>
        <mxCell id="Y6tP95EpHtXouHt9-1tt-19" value="8141" style="endArrow=classic;html=1;rounded=0;strokeWidth=2;strokeColor=#439bd6;fontSize=16;fontColor=#000000;fontStyle=1" edge="1" parent="1">
          <mxGeometry width="50" height="50" relative="1" as="geometry">
            <mxPoint x="-526" y="400" as="sourcePoint" />
            <mxPoint x="-526" y="320" as="targetPoint" />
          </mxGeometry>
        </mxCell>
        <mxCell id="Y6tP95EpHtXouHt9-1tt-20" value="5647" style="endArrow=classic;html=1;rounded=0;strokeWidth=2;strokeColor=#8dc63f;fontSize=16;fontColor=#000000;fontStyle=1" edge="1" parent="1">
          <mxGeometry width="50" height="50" relative="1" as="geometry">
            <mxPoint x="-466" y="400" as="sourcePoint" />
            <mxPoint x="-466" y="320" as="targetPoint" />
          </mxGeometry>
        </mxCell>
        <mxCell id="Y6tP95EpHtXouHt9-1tt-21" value="443" style="endArrow=classic;html=1;rounded=0;strokeWidth=2;strokeColor=#8dc63f;fontSize=16;fontColor=#000000;fontStyle=1" edge="1" parent="1">
          <mxGeometry width="50" height="50" relative="1" as="geometry">
            <mxPoint x="-416" y="400" as="sourcePoint" />
            <mxPoint x="-416" y="320" as="targetPoint" />
          </mxGeometry>
        </mxCell>
        <mxCell id="Y6tP95EpHtXouHt9-1tt-23" value="" style="endArrow=classic;html=1;rounded=0;strokeWidth=2;strokeColor=#8dc63f;fontColor=#000000;" edge="1" parent="1" source="Y6tP95EpHtXouHt9-1tt-9" target="Y6tP95EpHtXouHt9-1tt-3">
          <mxGeometry width="50" height="50" relative="1" as="geometry">
            <mxPoint x="-310" y="370" as="sourcePoint" />
            <mxPoint x="-310" y="290" as="targetPoint" />
            <Array as="points">
              <mxPoint x="-220" y="300" />
            </Array>
          </mxGeometry>
        </mxCell>
      </root>
    </mxGraphModel>
  </diagram>
</mxfile>
